<svg preserveAspectRatio="none" width="100%" height="100%" overflow="visible" style="display: block;" viewBox="0 0 13.3408 14.6667" fill="none" xmlns="http://www.w3.org/2000/svg">
<path id="vector" fill-rule="evenodd" clip-rule="evenodd" d="M2.66667 0V0.666667C2.66667 0 2.66716 1.58946e-07 2.66765 7.15256e-07L2.66865 2.90076e-06L2.67069 1.19209e-05L2.67497 4.95911e-05L2.68424 0.000213544C2.69075 0.000366052 2.6979 0.000609914 2.70569 0.00097537C2.72129 0.00170636 2.73944 0.00292285 2.76014 0.00486366C2.80157 0.00874726 2.85305 0.0155168 2.91453 0.0270435C3.03759 0.0501176 3.19976 0.0920755 3.40075 0.167447C3.75651 0.300858 4.23256 0.538422 4.82916 0.96026C6.48528 0.679913 8.18139 0.679914 9.8375 0.960261C10.4341 0.538422 10.9102 0.300858 11.2659 0.167447C11.4669 0.0920755 11.6291 0.0501176 11.7521 0.0270435C11.8136 0.0155168 11.8651 0.00874726 11.9065 0.00486366C11.9272 0.00292285 11.9454 0.00170636 11.961 0.00097537C11.9688 0.000609914 11.9759 0.000366052 11.9824 0.000213544L11.9917 4.95911e-05L11.996 1.19209e-05L11.998 2.90076e-06L11.999 7.15256e-07C11.9995 1.58946e-07 12 0 12 0.666667V0C12.3074 0 12.575 0.210241 12.6477 0.508955C12.8361 1.28242 12.857 2.0858 12.7106 2.86593C13.1682 3.61178 13.3851 4.4772 13.3333 5.35454C13.3231 7.70373 11.6203 9.14894 9.74586 9.55125C9.97325 10.1231 10.0629 10.7459 10 11.3685V14C10 14.3682 9.70152 14.6667 9.33333 14.6667C8.96514 14.6667 8.66667 14.3682 8.66667 14V11.3333C8.66667 11.3087 8.66803 11.2842 8.67074 11.2597C8.74416 10.5986 8.55459 9.93509 8.14296 9.41253C7.98495 9.21192 7.9554 8.93868 8.06689 8.70894C8.17838 8.4792 8.4113 8.33333 8.66667 8.33333C10.4174 8.33333 12 7.18983 12 5.33333C12 5.31913 12.0005 5.30493 12.0014 5.29075C12.0449 4.61028 11.8547 3.9425 11.4579 3.38799C11.3449 3.23014 11.3063 3.03089 11.3523 2.84229C11.4568 2.41272 11.4937 1.97106 11.4627 1.53298C11.2001 1.65961 10.8458 1.86562 10.4 2.2C10.2502 2.31238 10.06 2.35654 9.87594 2.32169C8.19792 2.00388 6.46875 2.00388 4.79072 2.32169C4.6067 2.35654 4.4165 2.31238 4.26667 2.2C3.81583 1.86187 3.4586 1.65501 3.19513 1.52875C3.16131 1.96462 3.20018 2.40407 3.31174 2.83172C3.36175 3.02339 3.32392 3.22737 3.20853 3.38837C2.81295 3.94028 2.62095 4.61226 2.66525 5.28985C2.66619 5.30432 2.66667 5.31883 2.66667 5.33333C2.66667 7.18983 4.24922 8.33333 6 8.33333C6.25597 8.33333 6.48934 8.47989 6.60051 8.71046C6.71168 8.94103 6.68102 9.21489 6.52162 9.41516C6.31545 9.6742 6.1635 9.9685 6.07475 10.2817C5.98536 10.5972 5.9587 10.93 5.99579 11.2585C5.99859 11.2834 6 11.3083 6 11.3333V14C6 14.3682 5.70152 14.6667 5.33333 14.6667C4.96514 14.6667 4.66667 14.3682 4.66667 14V12.2675C4.2213 12.3745 3.81394 12.3982 3.43613 12.3485C2.80308 12.265 2.32748 11.9848 1.9557 11.687C1.77346 11.541 1.61144 11.3868 1.47253 11.2523C1.44924 11.2297 1.42681 11.2079 1.40509 11.1868C1.29037 11.0753 1.19552 10.9831 1.09954 10.9002C0.872281 10.7037 0.756412 10.6667 0.666667 10.6667C0.298477 10.6667 0 10.3682 0 10C0 9.63181 0.298477 9.33333 0.666667 9.33333C1.24359 9.33333 1.66855 9.62961 1.9715 9.89148C2.09968 10.0023 2.22708 10.1262 2.34092 10.237C2.36115 10.2566 2.38095 10.2759 2.40026 10.2946C2.53554 10.4257 2.65946 10.5423 2.7893 10.6464C3.04168 10.8485 3.29484 10.985 3.61033 11.0265C3.86007 11.0595 4.19364 11.0386 4.64715 10.8867C4.65419 10.5601 4.70235 10.2344 4.79191 9.91826C4.82734 9.79325 4.86914 9.67051 4.91703 9.55044C3.04422 9.14702 1.34377 7.70233 1.33338 5.35497C1.28073 4.48074 1.49835 3.61389 1.95302 2.87073C1.7957 2.08556 1.81856 1.27666 2.02159 0.498385C2.09817 0.204832 2.36329 0 2.66667 0Z" fill="var(--fill-0, #646464)"/>
</svg>
