<svg preserveAspectRatio="none" width="100%" height="100%" overflow="visible" style="display: block;" viewBox="0 0 13.3333 13.3333" fill="none" xmlns="http://www.w3.org/2000/svg">
<path id="vector" fill-rule="evenodd" clip-rule="evenodd" d="M5.24905 1.52519C4.70235 1.67593 4.18024 1.9137 3.70363 2.23216C2.82657 2.8182 2.14298 3.65115 1.73931 4.62569C1.33564 5.60023 1.23003 6.67258 1.43581 7.70715C1.6416 8.74171 2.14955 9.69202 2.89543 10.4379C3.64131 11.1838 4.59162 11.6917 5.62619 11.8975C6.66075 12.1033 7.73311 11.9977 8.70765 11.594C9.68219 11.1904 10.5151 10.5068 11.1012 9.62971C11.4196 9.1531 11.6574 8.63098 11.8081 8.08429C11.1468 8.40486 10.4156 8.57597 9.66667 8.57597C8.36464 8.57597 7.11594 8.05875 6.19526 7.13807C5.27459 6.2174 4.75736 4.9687 4.75736 3.66667C4.75736 2.91778 4.92847 2.18653 5.24905 1.52519ZM2.96287 1.12354C4.0592 0.390993 5.34813 0 6.66667 0C6.93631 0 7.1794 0.162428 7.28259 0.411544C7.38578 0.660661 7.32874 0.947406 7.13807 1.13807C6.46745 1.8087 6.0907 2.71826 6.0907 3.66667C6.0907 4.61507 6.46745 5.52464 7.13807 6.19526C7.8087 6.86589 8.71826 7.24264 9.66667 7.24264C10.6151 7.24264 11.5246 6.86589 12.1953 6.19526C12.3859 6.0046 12.6727 5.94756 12.9218 6.05075C13.1709 6.15393 13.3333 6.39703 13.3333 6.66667C13.3333 7.98521 12.9423 9.27414 12.2098 10.3705C11.4773 11.4668 10.4361 12.3213 9.21789 12.8259C7.99972 13.3304 6.65927 13.4625 5.36607 13.2052C4.07286 12.948 2.88497 12.3131 1.95262 11.3807C1.02027 10.4484 0.385336 9.26048 0.128101 7.96727C-0.129134 6.67406 0.00288853 5.33362 0.507473 4.11544C1.01206 2.89727 1.86654 1.85608 2.96287 1.12354Z" fill="var(--fill-0, #202020)"/>
</svg>
