<svg preserveAspectRatio="none" width="100%" height="100%" overflow="visible" style="display: block;" viewBox="0 0 64 31.7079" fill="none" xmlns="http://www.w3.org/2000/svg">
<g id="Vector">
<path d="M64 7.83119H62.2006C60.9357 7.83119 59.8009 8.60892 59.3446 9.78864L55.403 19.9784L50.8087 7.83119L43.5524 7.83128V6.26503C43.5524 4.52475 44.5269 3.41097 46.0236 3.41097C46.6153 3.41097 47.207 3.51538 47.8335 3.75902L48.0423 0.556905C47.2766 0.313266 46.4064 0.174043 45.5363 0.174043C42.195 0.174043 39.7586 2.3668 39.7586 6.33464V7.83128C38.1631 7.83128 36.8697 9.12467 36.8697 10.7201V11.0682H39.7586V25.3733H40.4902C42.1814 25.3733 43.5524 24.0023 43.5524 22.3111V11.0682H48L53.5235 24.8511L50.8783 31.7079H52.6767C53.9421 31.7079 55.0772 30.9295 55.5332 29.7491L64 7.83119Z" fill="var(--fill-0, #202020)"/>
<path d="M30.5443 25.3733V10.8935C30.5443 9.20226 31.9153 7.83127 33.6065 7.83127H34.3381V22.3111C34.3381 24.0023 32.9671 25.3733 31.2759 25.3733H30.5443ZM32.4238 4.90759C31.0315 4.90759 29.9874 3.82862 29.9874 2.4712C29.9874 1.07898 31.0315 0 32.4238 0C33.8508 0 34.9298 1.07898 34.9298 2.4712C34.9298 3.82862 33.8508 4.90759 32.4238 4.90759Z" fill="var(--fill-0, #202020)"/>
<path d="M15.8004 7.83108H12.2138L12.2272 18.4444C12.2272 20.6372 10.1027 22.448 7.87515 22.448C5.64759 22.448 3.79381 20.7093 3.79381 18.5165V7.83119C1.69855 7.83119 0 9.52974 0 11.625V19.3867C0 23.1805 3.79381 25.8589 7.87515 25.8589C12.0819 25.8589 15.6938 22.9611 15.6938 19.1673L15.8004 16.8421C16.2953 13.8721 18.0895 10.9636 20.534 10.9636C22.7615 10.9636 24.1189 12.495 24.1189 14.6878V25.3731H24.8506C26.5418 25.3731 27.9128 24.0021 27.9128 22.3109V13.8176C27.9128 10.0238 25.3023 7.55263 21.5781 7.55263C19.0025 7.55263 16.9838 8.91476 15.8004 10.7943V7.83108Z" fill="var(--fill-0, #202020)"/>
</g>
</svg>
